# xmcd
#
# Track frame offsets:
# 150
# 14582
# 28460
# 43497
# 57711
# 73080
# 88430
# 103475
# 115469
# 135273
# 153836
# 167640
# 182188
# 197266
# 212826
# 225320
# 239873
# 255585
#
# Disc length: 3639 seconds
#
#
# Revision: 0
# Processed by: cddbd v1.5.2PL0 Copyright (c) Steve Scherf et al.
# Submitted via: FreeRIP 2.942 
#
DISCID=150e3512
DTITLE=Barretão 2008
DYEAR=2008
DGENRE=Country
TTITLE0=Cesar Menotti and Fabiano - Galera do bem
TTITLE1=Ze Henrique and Gabriel - Aperta o pe
TTITLE2=Denis and Renato - Festa de peao
TTITLE3=Gino and Geno - Pra tirar o barro
TTITLE4=Juliano Cezar - E isso que a galera quer
TTITLE5=Eduardo Costa - A gente se enrosca
TTITLE6=Joao Neto and Frederico - Bebo e dou trabai
TTITLE7=Rio Negro and Solimoes - Agito do meu povo
TTITLE8=Luiz Claudio and Giuliano - Eu sou peao
TTITLE9=Guto and Nando - Ela e show
TTITLE10=Daniel - Quebradeira
TTITLE11=Teodoro and Sampaio - Bate a bota no chao
TTITLE12=Hailton Freitas - Sapateia
TTITLE13=Amilton and Gustavo - Na Balada
TTITLE14=Gilberto and Gilmar - Cada buraco um susto
TTITLE15=Chico Amado and Xodo - Fazendo um tendel
TTITLE16=Roger and Rogerio - Adrenalina
TTITLE17=Guilherme and Santiago - Pega fogo cabare
EXTD=
EXTT0=
EXTT1=
EXTT2=
EXTT3=
EXTT4=
EXTT5=
EXTT6=
EXTT7=
EXTT8=
EXTT9=
EXTT10=
EXTT11=
EXTT12=
EXTT13=
EXTT14=
EXTT15=
EXTT16=
EXTT17=
PLAYORDER=
